<?xml version="1.0" encoding="UTF-8"?>
<svg width="160px" height="21px" viewBox="0 0 160 21" version="1.1" xmlns="http://www.w3.org/2000/svg" xmlns:xlink="http://www.w3.org/1999/xlink">
    <!-- Generator: Sketch 42 (36781) - http://www.bohemiancoding.com/sketch -->
    <title>ac_logo</title>
    <desc>Created with Sketch.</desc>
    <defs></defs>
    <g id="Page-1" stroke="none" stroke-width="1" fill="none" fill-rule="evenodd">
        <g id="ac_logo" fill-rule="nonzero">
            <g id="Layer_1">
                <g id="Group">
                    <path d="M11,14.8 C11,14.1 11.3,14 12,14.4 C13.2,15.1 14.4,15.7 14.4,15.7 C14.4,15.3 14.8,15 15.5,15.2 C16.2,15.4 16.9,15.5 16.9,15.5 C16.9,15.5 16.5,14.6 16.3,14.2 C16,13.5 16.3,13.1 16.6,13 C16.6,13 16.2,12.7 15.9,12.5 C15.3,12.1 15.4,11.6 16,11.4 C16.8,11 17.9,10.6 17.9,10.6 C17.6,10.4 17.2,9.9 17.6,9.2 C18,8.6 18.7,7.7 18.7,7.7 L16.8,7.7 C16.1,7.7 15.9,7.1 15.9,6.7 C15.9,6.7 14.8,7.5 14,8 C13.3,8.5 12.7,8 12.8,7.2 C13,6 13.1,4.6 13.1,4.6 C12.7,5 12,4.9 11.6,4.3 C11.1,3.3 10.6,2.1 10.6,2.1 C10.6,2.1 10.1,3.3 9.6,4.3 C9.3,4.9 8.6,5 8.2,4.7 C8.2,4.7 8.3,6.1 8.5,7.3 C8.6,8 8,8.5 7.3,8 C6.5,7.5 5.3,6.7 5.3,6.7 C5.3,7.1 5.1,7.6 4.4,7.7 L2.5,7.7 C2.5,7.7 3.2,8.6 3.6,9.2 C4,9.8 3.6,10.4 3.3,10.6 C3.3,10.6 4.3,11.1 5.2,11.4 C5.8,11.7 6,12.1 5.3,12.5 C5.1,12.7 4.6,13 4.6,13 C5,13.1 5.3,13.5 5,14.2 C4.8,14.6 4.4,15.5 4.4,15.5 C4.4,15.5 5.1,15.3 5.8,15.2 C6.5,15 6.8,15.4 6.9,15.7 C6.9,15.7 8.1,15 9.3,14.4 C9.9,14 10.3,14.2 10.3,14.8 L10.3,16.5 C10.3,17.5 10.1,18.5 9.8,19.1 C5.3,18.6 1.5,15 1.5,10.2 C1.5,5.3 5.6,1.3 10.7,1.3 C15.8,1.3 19.9,5.3 19.9,10.2 C19.9,14.8 16.3,18.6 11.7,19.1 L11.7,20.3 C17.1,19.8 21.3,15.5 21.3,10.2 C21.3,4.5 16.5,0 10.6,0 C4.8,0 0,4.5 0,10.1 C0,15 3.7,19.1 8.6,20 C9.4,20.2 9.9,20.3 10.4,20.8 C10.9,19.8 11,17.8 11,16.7 L11,14.8 Z" id="Shape" fill="#F01428"></path>
                    <path d="M53.9,15.5 L53.9,4.7 L59.2,4.7 C62,4.7 63.3,5.9 63.4,7.4 C63.4,8.1 63.3,8.8 62.8,9.3 C62.3,9.8 62.1,10 61.2,10.5 L65.2,15.6 L62.3,15.6 L58.7,11 L56.3,11 L56.3,15.5 L53.9,15.5 Z M56.3,9.6 L57.4,9.6 C60.3,9.6 60.9,9.1 60.9,7.7 C60.9,6.3 59.6,6.1 57.7,6.1 L56.3,6.1 L56.3,9.6 Z" id="Shape" fill="#000000"></path>
                    <path d="M30.2,15.5 L34.9,4.7 L37.8,4.7 L42.5,15.5 L39.6,15.5 L38.3,12.6 L33.3,12.6 L32,15.5 L30.2,15.5 Z M33.9,11.2 L37.6,11.2 L35.7,6.9 L33.9,11.2 Z" id="Shape" fill="#000000"></path>
                    <rect id="Rectangle-path" fill="#000000" x="45.8" y="4.7" width="2.5" height="10.8"></rect>
                    <path d="M83.2,15.1 C82,15.6 80.5,15.8 78.7,15.8 C76.6,15.8 74.9,15.3 73.7,14.3 C72.5,13.3 71.9,11.9 71.9,10.1 C71.9,8.3 72.5,6.8 73.7,5.9 C74.9,4.9 76.6,4.4 78.9,4.4 C80.3,4.4 81.7,4.5 83.2,4.8 L83.2,6.6 C81.6,6.1 80.1,5.9 79,5.9 C77.6,5.9 76.6,6.3 75.8,7 C75.1,7.7 74.7,8.8 74.7,10.1 C74.7,11.4 75.1,12.4 75.9,13.2 C76.7,13.9 77.8,14.3 79.2,14.3 C80.5,14.3 81.9,14 83.2,13.5 L83.2,15.1 Z" id="Shape" fill="#000000"></path>
                    <path d="M86.3,15.5 L91,4.7 L93.9,4.7 L98.6,15.5 L95.7,15.5 L94.4,12.6 L89.4,12.6 L88.1,15.5 L86.3,15.5 Z M90.1,11.2 L93.8,11.2 L92,6.9 L90.1,11.2 Z" id="Shape" fill="#000000"></path>
                    <path d="M117.6,15.5 L122.3,4.7 L125.2,4.7 L129.9,15.5 L127,15.5 L125.7,12.6 L120.7,12.6 L119.4,15.5 L117.6,15.5 Z M121.3,11.2 L125,11.2 L123.1,6.9 L121.3,11.2 Z" id="Shape" fill="#000000"></path>
                    <path d="M152.8,6.9 L154.7,11.2 L151,11.2 L152.8,6.9 Z M152,4.7 L147.3,15.5 L149.1,15.5 L150.4,12.6 L155.4,12.6 L156.7,15.5 L159.6,15.5 L154.9,4.7 L152,4.7 L152,4.7 Z" id="Shape" fill="#000000"></path>
                    <polygon id="Shape" fill="#000000" points="102.2 15.5 102.2 4.7 105.1 4.7 111.9 12.4 111.9 4.7 114 4.7 114 15.5 111.3 15.5 104.3 7.4 104.3 15.5"></polygon>
                    <path d="M133.4,15.5 L133.4,4.7 L138.6,4.7 C140.5,4.7 141.9,5.2 142.9,6 C143.9,6.9 144.4,8.2 144.4,9.8 C144.4,11.6 143.9,13 142.8,13.9 C141.7,14.9 140.3,15.4 138.4,15.4 L133.4,15.4 L133.4,15.5 Z M135.9,14 L137.8,14 C139.1,14 140.1,13.7 140.8,13 C141.5,12.3 141.8,11.4 141.8,10 C141.8,9 141.5,8.1 141,7.4 C140.6,6.9 140.2,6.6 139.7,6.4 C139.2,6.2 138.5,6.1 137.5,6.1 L136,6.1 L136,14 L135.9,14 Z" id="Shape" fill="#000000"></path>
                </g>
            </g>
        </g>
    </g>
</svg>